# xmcd CD database file
#
# Track frame offsets:
#	150
#	12764
#	25528
#	41636
#	61735
#	75914
#	96453
#	113213
#	130242
#	147063
#	162603
#	177240
#
# Disc length: 2552 seconds
#
# Revision: 0
# Processed by: cddbd v1.4PL0 Copyright (c) Steve Scherf et al.
# Submitted via: CDex 1.40Beta9
#
DISCID=9109f60c
DTITLE=Billy Sheets - Wake Up and Live
DYEAR=1900
DGENRE=Blues
TTITLE0=Come Out Swingin'
TTITLE1=Ships Passing in The Night
TTITLE2=Only You For Me
TTITLE3=Dancing On a Cliff
TTITLE4=Wake Up and Live
TTITLE5=Safecracker
TTITLE6=Welcome To The Club
TTITLE7=Kick Down, Baby
TTITLE8=Move Out
TTITLE9=Why Does It All Break Down
TTITLE10=Morning Breeze
TTITLE11=Pleasing You
EXTD=ID3G: 0
EXTT0=
EXTT1=
EXTT2=
EXTT3=
EXTT4=
EXTT5=
EXTT6=
EXTT7=
EXTT8=
EXTT9=
EXTT10=
EXTT11=
PLAYORDER=
